<?xml version="1.0" encoding="utf-8"?>
<!-- Generator: Adobe Illustrator 23.0.6, SVG Export Plug-In . SVG Version: 6.00 Build 0)  -->
<svg version="1.1" xmlns="http://www.w3.org/2000/svg" xmlns:xlink="http://www.w3.org/1999/xlink" x="0px" y="0px"
	 viewBox="0 0 100 100" style="enable-background:new 0 0 100 100;" xml:space="preserve">
<style type="text/css">
	.st0{fill:#FFFFFF;}
	.st1{display:none;}
	.st2{display:inline;}
	.st3{display:inline;fill:none;stroke:#E100DA;stroke-width:0.5;stroke-miterlimit:10;}
	.st4{display:inline;fill:#E100DA;}
	.st5{display:inline;fill:none;stroke:#E300C4;stroke-width:0.25;stroke-miterlimit:10;}
	.st6{display:inline;fill:#FFFFFF;}
	.st7{fill:none;stroke:#E100DA;stroke-width:0.5;stroke-miterlimit:10;}
	.st8{fill-rule:evenodd;clip-rule:evenodd;fill:#FFFFFF;}
</style>
<g id="avatar">
	<title>Basic t shirt mannen</title>
	<path d="M106.3,99.5c-3.5-5.8-6.2-7.7-13-10.4L65.6,77.7v-3.8c1.8-0.9,3.3-2.2,4.4-3.9c0.8-1.3,1.7-5.1,1.8-5.5
		c0.8-3,1.8-9.1,2.1-10.8c2.3-2,3.6-5.3,3.9-9.9c0-3.4-1-5.5-2.6-5.5l0,0c-0.4,0-0.7,0.1-1,0.3c0-2.5-0.1-8.3-1.1-10.7
		c-4.5-12.8-17-14.8-22.4-14.7h-0.4c-5.4-0.1-18,2-22.4,14.7c-1.1,2.3-1.1,8.1-1.1,10.7c-0.3-0.2-0.7-0.3-1-0.3l0,0
		c-1.6,0-2.6,2.1-2.6,5.5c0.3,4.6,1.6,7.9,3.9,9.9c0.3,1.7,1.4,7.8,2.1,10.8c0.1,0.4,1,4.1,1.8,5.5c1.1,1.7,2.6,3,4.4,3.9v3.8
		L7.4,89.2c-6.7,2.6-9.5,4.5-13,10.4H106.3z"/>
	<path id="face" class="st0" d="M50.4,16.3c-0.4,0-8.6,0.3-13.4,3c-2.8,1.6-4.4,3.6-4.4,3.6c-0.3,0.4-0.8,1-1.2,1.9
		c-2.1,3.9-2.8,9.1-2.9,9.5c0,0-0.6,5.1-0.8,15.2c0,1.2,0.1,2.5,0.3,3.7c2,1.5,4.5,2.3,7,2c1.2-0.1,3.4-0.8,4.9-1.2
		c1.2-0.3,1.4-0.4,2.1-0.6c1.4-0.4,3.5-0.8,6.3-0.9c0.5,0,1.1,0,2,0h0c0.8,0,1.5,0,2,0c2.8,0.1,4.9,0.5,6.3,0.9
		c0.6,0.2,0.9,0.3,2.1,0.6c1.5,0.4,3.7,1.1,4.9,1.2c2.5,0.2,5-0.5,7-2c0.2-1.2,0.3-2.5,0.3-3.7c-0.2-10.2-0.8-15.2-0.8-15.2
		c-0.1-0.4-0.7-5.6-2.9-9.5c-0.4-0.8-0.9-1.4-1.2-1.9c0,0-1.6-2-4.4-3.6C59,16.6,50.8,16.3,50.4,16.3L50.4,16.3z"/>
	<path id="mouth" class="st0" d="M43.6,60.9c-0.5-0.5-0.5-1.2,0-1.7c0.5-0.5,1.2-0.5,1.7,0c1.4,1.4,3,2,5.1,2c2.1,0,3.7-0.7,5.1-2
		c0.5-0.5,1.2-0.5,1.7,0c0.5,0.5,0.5,1.2,0,1.7c-1.8,1.8-4.1,2.7-6.8,2.7S45.4,62.7,43.6,60.9z"/>
	<path id="neck" class="st0" d="M43.5,77.7c2.2,0.8,4.5,1.3,6.7,1.5h0.3c3.2-0.1,6.4-1.1,9.1-2.8c0.8-0.4,1.5-0.8,2.4-1.2l0.7-0.3
		l1.3-0.6v4.7c-9.4,5.4-18.3,5.4-27.2,0v-4.6L43.5,77.7z"/>
	<g id="eyes">
		<circle cx="37.5" cy="42.3" r="3"/>
		<circle cx="63.2" cy="42.3" r="3"/>
	</g>
	<g id="ears">
		<path class="st0" d="M75.6,39.8L75.6,39.8c0.3,0,1,1,1.1,4c0,2.8-0.9,5.5-2.4,7.8v-7.9C74.4,40.9,75.3,39.8,75.6,39.8z"/>
		<path class="st0" d="M24.1,43.8c0-3,0.8-4,1.1-4l0,0c0.2,0,0.8,0.6,1.1,2.1v8.2c0,0.4,0,0.8,0,1.2C24.9,49.1,24.1,46.5,24.1,43.8z
			"/>
	</g>
</g>
<g id="Layer_4" class="st1">
	
		<image style="display:inline;overflow:visible;" width="1067" height="1700" xlink:href="hat.jpeg"  transform="matrix(0.1548 0 0 0.1548 -33.9595 68.88)">
	</image>
	<g class="st2">
		<path d="M101.6,104.3l0.7,1.9c0,0,4.1,1,6.9,1.2s4.1-1.3,4.1-1.3c1.2-1.3,0-2.6,0-2.6l-3.6-1.5c-7-3.1-16.4-7.2-16.4-7.2
			c-17.2-8.9-43-8.9-43-8.9h-0.5c0,0-25.8,0-43,8.9c0,0-9.3,4.1-16.4,7.2l-3.6,1.5c0,0-1.2,1.3,0,2.6c0,0,1.2,1.5,4.1,1.3
			s6.9-1.2,6.9-1.2l0.7-1.9l3-3.7c0,0,34.8-7.4,42.5-7.2s35.8,2.3,35.8,2.3l18.4,5.5L101.6,104.3"/>
		<path d="M110,106.4c-32.5-10-60.1-8.5-60.1-8.5h-0.3c0,0-27.6-1.5-60.1,8.5l12.9-7.9l38.4-8.6h19.9l27.4,4.5L110,106.4z"/>
	</g>
</g>
<g id="hat" class="st1">
	<path class="st3" d="M52.8,16.1"/>
	<path class="st4" d="M50.9,16c-1,0-1.4-0.2-1.4-0.2c0-0.7,0.9-1.2,1.9-1.2c1.1,0,1.9,0.6,1.9,1.2c0,0-0.5,0.3-1.2,0.3L50.9,16z"/>
	<path class="st2" d="M71,37.9c0,0,1.2,2.1,1.1,2.6c-0.1,0.5-0.9,1.1-3.1,0.3c0,0-2.7-1.3-6.7-1.4s-11.4-0.5-11.4-0.5l-1,0
		c0,0-7.3,0.4-11.3,0.6S32,40.7,32,40.7c-2.1,0.9-3,0.2-3.1-0.3s1.1-2.6,1.1-2.6l-0.2-0.5c-0.6-10.9,4.7-15.9,4.7-15.9
		c6-6,15-5.5,15-5.5h1.7c0,0,9-0.5,15,5.5c0,0,5.4,4.9,4.7,15.9L71,37.9z"/>
	<path class="st5" d="M73.8,13.6c0,0-18.6-9.9-41.1-0.1"/>
	<path class="st6" d="M34.6,35.5c-0.7-17.1,11.2-19.3,11.2-19.3s-11.2,2.6-10.7,19L34.6,35.5z"/>
	<path class="st6" d="M66,35.2c0.5-16.4-10.7-19-10.7-19s11.9,2.2,11.2,19.3L66,35.2z"/>
	<path class="st6" d="M70.8,38.2c0,0-8.4-4.1-20.7-4.1c-6,0-13,1-20.4,4v-0.3c7.4-3.2,14.3-4.3,20.4-4.3c12.3,0,20.7,4.4,20.7,4.4
		V38.2z"/>
</g>
<g id="hat_copy" class="st1">
	<path class="st2" d="M50.5,15.3c0,0,9.9-1.5,15.8,5.3c0,0,3.8,4.4,3.8,17.2c0,0,1.3,2.7,1.2,3.3c-0.1,0.6-1,1.4-3.4,0.3
		c0,0-3.8-2.7-17.1-2.7h-2c-13.3,0-17.1,2.7-17.1,2.7c-2.3,1.1-3.3,0.3-3.4-0.3c-0.1-0.6,1.2-3.3,1.2-3.3c0-12.7,4-16.9,4-16.9
		c6-6.7,15.7-5.6,15.7-5.6H50.5z"/>
	<path class="st3" d="M50,15.1"/>
	<path class="st2" d="M49.3,15.4c-1,0-1.4-0.2-1.4-0.2c0-0.7,0.9-1.2,1.9-1.2c1.1,0,1.9,0.6,1.9,1.2c0,0-0.5,0.3-1.2,0.3L49.3,15.4z
		"/>
	<g class="st2">
		<path class="st0" d="M32.4,37.1c-0.8-19.2,12.4-21.7,12.4-21.7S32.4,18.3,33,36.7L32.4,37.1z"/>
		<path class="st0" d="M67,36.7c0.6-18.4-11.8-21.3-11.8-21.3s13.1,2.5,12.4,21.7L67,36.7z"/>
	</g>
	<path class="st6" d="M69.9,37.8c0,0-8.4-2.8-20-2.8c-5.7,0-13.1,1-20.1,2.9v-0.1c7-2.2,14.4-3.3,20.1-3.3c11.6,0,20,3.1,20,3.1
		V37.8z"/>
</g>
<g id="hat_copy_2">
	<g id="Layer_6">
		<g>
			<path d="M74.8,40.1l0.7,0.4c0,0,1.5,1.2,2.9,1.3c1.4,0.1,1.9-0.7,1.9-0.7c0.6-0.7,0-1.5,0-1.5l-1.7-0.9c-3.3-1.7-7.7-4.1-7.7-4.1
				c-8.2-5-20.4-5-20.4-5h-0.2c0,0-12.2,0-20.4,5c0,0-4.4,2.3-7.7,4.1l-1.7,0.9c0,0-0.6,0.7,0,1.5c0,0,0.6,0.9,1.9,0.7
				c1.4-0.1,2.5-1.2,2.5-1.2l1.1-0.6l1.4-2.1c0,0,16.5-4.1,20.1-4c3.6,0.1,17,1.3,17,1.3l8.7,3.1L74.8,40.1"/>
			<path d="M78.7,41.3c-15.4-5.6-28.5-4.8-28.5-4.8h-0.1c0,0-13.1-0.9-28.5,4.8l6.1-4.5L46,32h9.4l13,2.5L78.7,41.3z"/>
		</g>
	</g>
	<path d="M24.8,37.4c0,0,23-12.5,51.1,0c0-16-4.8-22.8-4.8-22.8C63.7,6,51.3,7.9,51.3,7.9h-1.7c0,0-12.2-1.5-19.7,7
		c0,0-5,5.2-5,21.2"/>
	<path class="st7" d="M50.4,9.2"/>
	<path d="M49.7,8.3c-1.1,0-1.7-0.3-1.7-0.3c0-0.8,1-1.5,2.3-1.5s2.3,0.7,2.3,1.5c0,0-0.6,0.3-1.4,0.3L49.7,8.3z"/>
	<g>
		<path class="st0" d="M28.2,35.7c-1-24.5,15.6-27.7,15.6-27.7s-15.6,3.7-14.9,27.2L28.2,35.7z"/>
		<path class="st0" d="M71.8,35.2C72.5,11.8,56.9,8.1,56.9,8.1s16.6,3.2,15.6,27.7L71.8,35.2z"/>
	</g>
	<path class="st0" d="M74.8,36.8c0,0-10.3-5.3-24.4-5.3c-6.9,0-16,1.9-24.5,5.6v-0.3c8.5-4.1,17.5-6.2,24.5-6.2
		c14.2,0,24.4,6,24.4,6V36.8z"/>
</g>
<g id="LA_logo">
	<path class="st8" d="M54.6,22.7h-1.3v1.7h-0.6l-1.2-5.1h-1.7l-1.2,5.1h-0.6v-7.1H49v-1.1h-2.9v1.1l0.8,0v7.1h-0.8v1.3h2.1l-0.3,1.7
		H47v1.2h3.1v-1.2h-0.9l0.4-1.9h2.3l0.4,1.9h-0.9v1.2h3v-1.2h-0.8L53,25.6h1.6V22.7z M49.8,24.3l0.9-3.7l0.8,3.7H49.8z"/>
</g>
</svg>
